<?xml version="1.0" standalone="no"?>
<!DOCTYPE svg PUBLIC "-//W3C//DTD SVG 20010904//EN"
 "http://www.w3.org/TR/2001/REC-SVG-20010904/DTD/svg10.dtd">
<svg version="1.0" xmlns="http://www.w3.org/2000/svg"
 width="412.000000pt" height="412.000000pt" viewBox="0 0 412.000000 412.000000"
 preserveAspectRatio="xMidYMid meet">

<g transform="translate(0.000000,412.000000) scale(0.100000,-0.100000)"
fill="#000000" stroke="none">
<path d="M1915 3787 c-56 -23 -72 -36 -104 -85 -62 -97 -117 -234 -795 -1987
-480 -1242 -454 -1170 -438 -1231 17 -63 44 -98 100 -131 82 -48 195 -31 258
39 32 34 57 88 150 324 46 118 89 226 95 242 11 26 12 25 49 -54 176 -378 525
-605 970 -630 252 -14 488 45 720 181 98 58 281 233 345 330 37 56 40 65 40
132 0 82 -14 108 -84 158 -37 26 -52 30 -104 30 -38 -1 -74 -7 -93 -18 -17 -9
-78 -63 -135 -120 -168 -167 -283 -237 -456 -278 -399 -95 -798 136 -900 521
-23 87 -23 262 0 350 73 277 303 506 583 581 104 28 307 31 404 6 139 -37 251
-104 392 -235 101 -94 132 -112 197 -112 161 1 245 137 175 285 -24 51 -158
191 -244 255 -234 174 -565 251 -873 205 -120 -18 -188 -37 -295 -82 -45 -20
-85 -33 -88 -30 -3 3 86 237 199 519 113 282 213 537 222 567 34 105 5 188
-87 249 -32 21 -55 27 -107 29 -36 1 -79 -3 -96 -10z"/>
<path d="M2865 3572 c-16 -11 -52 -39 -78 -62 -77 -69 -517 -530 -538 -564
-23 -38 -24 -94 -4 -143 31 -73 81 -106 160 -106 96 1 115 15 393 298 314 319
333 341 339 399 7 57 -23 124 -72 162 -50 38 -153 46 -200 16z"/>
<path d="M3245 2987 c-91 -53 -284 -188 -305 -214 -47 -60 -4 -172 73 -189 37
-8 99 23 258 129 155 102 169 116 169 169 0 57 -18 89 -60 110 -47 24 -87 22
-135 -5z"/>
</g>
</svg>
