<?xml version="1.0" standalone="no"?>
<!DOCTYPE svg PUBLIC "-//W3C//DTD SVG 20010904//EN"
 "http://www.w3.org/TR/2001/REC-SVG-20010904/DTD/svg10.dtd">
<svg version="1.0" xmlns="http://www.w3.org/2000/svg"
 width="1140.000000pt" height="412.000000pt" viewBox="0 0 1140.000000 412.000000"
 preserveAspectRatio="xMidYMid meet">

<g transform="translate(0.000000,412.000000) scale(0.100000,-0.100000)"
fill="#000000" stroke="none">
<path d="M1685 3770 c-99 -48 -104 -59 -640 -1450 -218 -565 -393 -1016 -599
-1547 -47 -122 -86 -234 -86 -250 0 -56 22 -108 64 -149 84 -85 221 -81 303 9
40 43 43 50 218 499 l38 97 32 -73 c154 -354 475 -584 887 -636 171 -21 347
-6 522 45 107 31 276 116 366 184 86 65 220 205 270 283 35 54 40 68 40 120 0
68 -15 103 -64 146 -58 51 -129 63 -207 37 -36 -12 -65 -37 -139 -117 -178
-191 -335 -277 -560 -308 -242 -33 -511 73 -666 261 -235 286 -214 695 49 975
170 181 394 273 641 261 131 -6 202 -24 309 -77 93 -47 131 -76 254 -192 100
-95 121 -104 218 -96 97 8 165 86 165 188 0 83 -53 161 -197 291 -322 290
-850 363 -1262 173 -41 -19 -75 -34 -77 -34 -4 0 85 225 269 681 149 366 177
445 177 487 0 28 -4 62 -9 75 -15 38 -70 96 -112 118 -51 26 -150 25 -204 -1z"/>
<path d="M2679 3575 c-41 -13 -82 -52 -347 -323 -254 -261 -302 -314 -307
-345 -29 -153 92 -258 242 -211 55 17 69 30 273 239 357 365 378 387 386 431
26 140 -108 253 -247 209z"/>
<path d="M2944 2919 c-65 -44 -140 -95 -166 -112 -52 -36 -68 -61 -68 -113 0
-77 63 -132 135 -118 42 8 358 213 374 243 16 29 13 103 -5 129 -22 31 -66 52
-112 52 -32 0 -59 -14 -158 -81z"/>
<path d="M4175 2246 c-291 -48 -536 -245 -643 -516 -56 -143 -57 -150 -57
-721 l0 -525 27 -41 c75 -114 251 -107 317 12 13 25 17 73 21 275 l5 245 365
5 c362 5 365 5 403 29 111 69 103 236 -15 297 -22 11 -96 14 -381 14 -261 0
-356 3 -365 12 -30 30 -3 217 43 309 39 75 130 163 209 200 250 117 518 6 632
-261 18 -42 19 -81 24 -570 l5 -525 23 -37 c76 -122 265 -113 323 16 17 38 19
75 18 541 0 555 -3 594 -61 737 -143 351 -523 565 -893 504z"/>
<path d="M7813 2245 c-190 -34 -353 -117 -491 -249 -163 -156 -258 -343 -288
-571 -45 -330 84 -656 340 -861 361 -289 877 -285 1268 9 45 34 259 243 510
500 621 634 676 688 741 726 224 131 472 118 667 -35 193 -151 272 -416 193
-646 -35 -102 -86 -180 -162 -250 -109 -102 -231 -148 -386 -148 -191 0 -312
59 -505 246 -117 113 -150 134 -210 134 -57 0 -99 -20 -142 -68 -78 -86 -64
-153 62 -290 191 -210 345 -309 566 -364 72 -18 117 -22 234 -22 176 0 266 21
415 93 260 127 423 325 507 617 20 68 23 101 22 234 -1 134 -4 168 -27 252
-105 395 -457 681 -868 705 -224 13 -468 -63 -648 -202 -33 -25 -293 -284
-578 -576 -285 -292 -554 -560 -598 -595 -143 -116 -273 -164 -445 -164 -168
0 -307 56 -419 169 -113 113 -171 253 -171 413 0 165 53 294 169 408 132 132
276 187 461 177 185 -9 289 -62 487 -248 70 -67 142 -128 160 -135 39 -17 116
-18 146 -3 32 17 87 70 103 101 18 35 18 111 -1 147 -21 41 -254 261 -338 319
-233 161 -511 225 -774 177z"/>
<path d="M6010 2235 c-280 -56 -494 -258 -572 -540 -21 -77 -22 -99 -26 -633
-3 -552 -3 -553 19 -598 61 -126 240 -138 317 -21 l27 40 5 296 5 296 407 5
c393 5 408 6 435 26 51 38 73 81 73 144 0 47 -5 64 -29 97 -52 72 -59 73 -502
73 l-391 0 4 94 c3 80 8 102 36 159 51 103 149 180 264 207 24 5 192 10 375
10 209 0 342 4 360 11 34 13 80 55 99 91 18 35 18 121 0 156 -19 37 -55 68
-98 87 -32 13 -93 15 -390 14 -248 -1 -372 -5 -418 -14z"/>
</g>
</svg>
